<svg width="24" height="24" viewBox="0 0 24 24" fill="none" xmlns="http://www.w3.org/2000/svg">
<path d="M3.43854 8.5412C3.39751 8.12903 3.03012 7.82816 2.61794 7.86919C2.20576 7.91022 1.90489 8.27762 1.94592 8.68979L3.43854 8.5412ZM22.0539 8.68977C22.095 8.2776 21.7941 7.9102 21.3819 7.86917C20.9697 7.82814 20.6023 8.12901 20.5613 8.54119L22.0539 8.68977ZM7.74577 23.0001L7.74577 22.2501L7.74577 23.0001ZM3.76544 19.3963L4.51175 19.322L3.76544 19.3963ZM20.2344 19.3963L19.4881 19.322L20.2344 19.3963ZM16.2541 22.2501L7.74577 22.2501L7.74577 23.7501L16.2541 23.7501L16.2541 22.2501ZM20.5613 8.54119L19.4881 19.322L20.9807 19.4706L22.0539 8.68977L20.5613 8.54119ZM1.94592 8.68979L3.01913 19.4706L4.51175 19.322L3.43854 8.5412L1.94592 8.68979ZM7.74577 22.2501C6.07552 22.2501 4.6772 20.9841 4.51175 19.322L3.01913 19.4706C3.26094 21.8997 5.30464 23.7501 7.74577 23.7501L7.74577 22.2501ZM16.2541 23.7501C18.6952 23.7501 20.7389 21.8997 20.9807 19.4706L19.4881 19.322C19.3226 20.9841 17.9243 22.2501 16.2541 22.2501L16.2541 23.7501Z" fill="#202020"/>
<path d="M12 14.5386V17.9232" stroke="#202020" stroke-width="1.5" stroke-linecap="round" stroke-linejoin="round"/>
<path d="M16.2307 14.5386V17.9232" stroke="#202020" stroke-width="1.5" stroke-linecap="round" stroke-linejoin="round"/>
<path d="M7.76929 14.5386V17.9232" stroke="#202020" stroke-width="1.5" stroke-linecap="round" stroke-linejoin="round"/>
<path d="M9.46182 0.999931L6.92338 7.76917" stroke="#202020" stroke-width="1.5" stroke-linecap="round" stroke-linejoin="round"/>
<path d="M1 8.61548H23" stroke="#202020" stroke-width="1.5" stroke-linecap="round" stroke-linejoin="round"/>
<path d="M14.5384 1.00006L17.0769 7.76929" stroke="#202020" stroke-width="1.5" stroke-linecap="round" stroke-linejoin="round"/>
</svg>
