<svg width="102" height="103" viewBox="0 0 102 103" fill="none" xmlns="http://www.w3.org/2000/svg">
<path d="M9.68658 36.5164C9.63187 35.9668 9.14201 35.5657 8.59244 35.6204C8.04287 35.6751 7.64171 36.1649 7.69642 36.7145L9.68658 36.5164ZM94.302 36.7144C94.3567 36.1648 93.9555 35.675 93.4059 35.6203C92.8564 35.5656 92.3665 35.9667 92.3118 36.5163L94.302 36.7144ZM28.7813 102L28.7813 101L28.7813 102ZM13.8551 88.4858L14.8502 88.3868L13.8551 88.4858ZM73.2171 102L73.2171 103L73.2171 102ZM88.1433 88.4858L87.1482 88.3868L88.1433 88.4858ZM73.2171 101L28.7813 101L28.7813 103L73.2171 103L73.2171 101ZM92.3118 36.5163L87.1482 88.3868L89.1384 88.5849L94.302 36.7144L92.3118 36.5163ZM7.69642 36.7145L12.86 88.5849L14.8502 88.3868L9.68658 36.5164L7.69642 36.7145ZM28.7813 101C21.5864 101 15.5629 95.5463 14.8502 88.3868L12.86 88.5849C13.6745 96.7672 20.5585 103 28.7813 103L28.7813 101ZM73.2171 103C81.4398 103 88.3239 96.7672 89.1384 88.5849L87.1482 88.3868C86.4355 95.5463 80.412 101 73.2171 101L73.2171 103Z" fill="#8C8C8C"/>
<path d="M51 53.0001V89.0001" stroke="#8C8C8C" stroke-width="2" stroke-linecap="round" stroke-linejoin="round"/>
<path d="M70 53.0001V89.0001" stroke="#8C8C8C" stroke-width="2" stroke-linecap="round" stroke-linejoin="round"/>
<path d="M32 53V89" stroke="#8C8C8C" stroke-width="2" stroke-linecap="round" stroke-linejoin="round"/>
<path d="M39.4625 2.00004L27.9242 32.7693" stroke="#8C8C8C" stroke-width="2" stroke-linecap="round" stroke-linejoin="round"/>
<path d="M1 36.6154H101" stroke="#8C8C8C" stroke-width="2" stroke-linecap="round" stroke-linejoin="round"/>
<path d="M62.5382 2.00006L74.0767 32.7693" stroke="#8C8C8C" stroke-width="2" stroke-linecap="round" stroke-linejoin="round"/>
</svg>
